<?xml version="1.0" encoding="utf-8"?>
<!-- Generator: Adobe Illustrator 22.0.0, SVG Export Plug-In . SVG Version: 6.00 Build 0)  -->
<svg version="1.1" id="Layer_1" xmlns="http://www.w3.org/2000/svg" xmlns:xlink="http://www.w3.org/1999/xlink" x="0px" y="0px"
	 viewBox="0 0 216 216" style="enable-background:new 0 0 216 216;" xml:space="preserve">
<style type="text/css">
	.st0{fill:#231F20;}
</style>
<g>
	<path class="st0" d="M64.8,102.1c6.5,1.4,12.2,4.6,17.3,9.7c7.3,7.3,10.9,16.3,10.9,26.9c0,10.4-3.7,19.2-11.2,26.5
		c-7.4,7.3-16.3,10.9-26.7,10.9c-10.4,0-19.3-3.6-26.7-10.9c-7.4-7.3-11.2-16.1-11.2-26.5c0-5.9,1-11.4,2.9-16.4L61.4,39h27.4
		L64.8,102.1z M170.8,102.1c6.5,1.4,12.2,4.6,17.3,9.7c7.3,7.3,10.9,16.3,10.9,26.9c0,10.4-3.7,19.2-11.2,26.5
		c-7.4,7.3-16.3,10.9-26.7,10.9c-10.4,0-19.3-3.6-26.7-10.9c-7.4-7.3-11.2-16.1-11.2-26.5c0-5.9,1-11.4,2.9-16.4L167.4,39h27.4
		L170.8,102.1z"/>
</g>
</svg>
