<?xml version="1.0" encoding="utf-8"?>
<!-- Generator: Adobe Illustrator 22.0.0, SVG Export Plug-In . SVG Version: 6.00 Build 0)  -->
<svg version="1.1" id="Layer_1" xmlns="http://www.w3.org/2000/svg" xmlns:xlink="http://www.w3.org/1999/xlink" x="0px" y="0px"
	 viewBox="0 0 364 357.2" style="enable-background:new 0 0 364 357.2;" xml:space="preserve">
<style type="text/css">
	.st0{fill:#C1E8F6;}
	.st1{fill:#AEE1F3;}
	.st2{fill:#A3B0B3;}
	.st3{fill:#FAAF43;}
	.st4{fill:#EAB9C7;}
</style>
<g>
	<path class="st0" d="M74.4-270.9c0-34.3-27.8-62.1-62.1-62.1c-13.8,0-27.2,4.6-38.1,13.1c-24.3-28.1-66.7-31.1-94.7-6.9
		c-9.4,8.1-16.3,18.7-20.1,30.5c-20.7-18.4-52.3-16.5-70.7,4.2c-18.4,20.7-16.5,52.3,4.2,70.7c9.2,8.2,21,12.7,33.3,12.7
		c0.8,0,1.5,0,2.3-0.1c0.8,0,1.6,0.1,2.4,0.1H18.9c28.1,0,51.5-21.3,54.2-49.2C73.9-262.2,74.4-266.5,74.4-270.9z"/>
	<g>
		<g>
			<path class="st1" d="M101.5-194.7H26.7c-3.5,0-6.4-2.8-6.4-6.4s2.8-6.4,6.4-6.4h74.7c5.4,0,9.7-4.4,9.7-9.7s-4.4-9.7-9.7-9.7H92
				c-3.5,0-6.4-2.8-6.4-6.4s2.8-6.4,6.4-6.4h9.5c12.5,0,22.5,10.1,22.5,22.5C124-204.9,113.8-194.7,101.5-194.7z"/>
		</g>
		<g>
			<path class="st1" d="M77.1-118c-15.8,0-28.7-12.9-28.7-28.7c0-10.8,8.9-19.7,19.7-19.7s19.7,8.9,19.7,19.7v3.3
				c0,3.5-2.8,6.4-6.4,6.4c-3.5,0-6.4-2.8-6.4-6.4v-3.3c0-3.7-3.1-6.8-6.8-6.8c-3.7,0-6.8,3.1-6.8,6.8c0,8.7,7.1,15.8,15.8,15.8
				S93-138,93-146.8v-6.6c0-12-9.7-21.7-21.7-21.7H-29.4c-3.5,0-6.4-2.8-6.4-6.4c0-3.5,2.8-6.4,6.4-6.4H71.2
				c19,0,34.5,15.5,34.5,34.5v6.6C105.7-130.9,93-118,77.1-118z"/>
		</g>
	</g>
</g>
<g>
	<path class="st2" d="M500.9-295.9c0-33.1-26.8-59.9-59.9-59.9c-13.3,0-26.3,4.4-36.8,12.7c-23.4-27.1-64.3-30.1-91.4-6.6
		c-9.1,7.8-15.7,18-19.4,29.4c-19.9-17.7-50.5-15.9-68.2,4s-15.9,50.5,4,68.2c8.9,7.9,20.2,12.2,32.2,12.2c0.7,0,1.5,0,2.2-0.1
		c0.7,0,1.6,0.1,2.3,0.1h181.5c27.1,0,49.7-20.6,52.3-47.5C500.5-287.5,500.9-291.7,500.9-295.9z"/>
	<path class="st0" d="M562.7-231c0-33.1-26.8-59.9-59.9-59.9c-13.3,0-26.3,4.4-36.8,12.7c-23.4-27.1-64.3-30.1-91.4-6.6
		c-9.1,7.8-15.7,18-19.4,29.4c-19.9-17.7-50.5-15.9-68.2,4s-15.9,50.5,4,68.2c8.9,7.9,20.2,12.2,32.2,12.2c0.7,0,1.5,0,2.2-0.1
		c0.7,0,1.6,0.1,2.3,0.1h181.5c27.1,0,49.7-20.6,52.3-47.5C562.3-222.7,562.7-226.8,562.7-231z"/>
</g>
<path class="st2" d="M884.9,29.7c0-31.4-25.4-56.8-56.8-56.8c-12.6,0-24.9,4.2-34.9,12c-22.2-25.7-61-28.5-86.7-6.3
	c-8.6,7.4-14.9,17.1-18.4,27.9c-18.9-16.8-47.9-15.1-64.7,3.8s-15.1,47.9,3.8,64.7c8.4,7.5,19.2,11.6,30.5,11.6c0.7,0,1.4,0,2.1-0.1
	c0.7,0,1.5,0.1,2.2,0.1h172.1c25.7,0,47.1-19.5,49.6-45C884.5,37.7,884.9,33.7,884.9,29.7z"/>
<g>
	<path class="st1" d="M706.6,60.1l-14.4,30.6c-3.2,6.7-3.3,14.7,0.2,21.2c2.5,4.6,6.8,8.6,14.2,8.6c7.4,0,11.7-4,14.2-8.6
		c3.5-6.5,3.4-14.5,0.2-21.2L706.6,60.1z"/>
	<path class="st1" d="M752,113.4l-7.7,16.4c-1.7,3.6-1.8,7.9,0.1,11.4c1.3,2.5,3.7,4.6,7.6,4.6c4,0,6.3-2.1,7.6-4.6
		c1.9-3.5,1.8-7.8,0.1-11.4L752,113.4z"/>
	<path class="st1" d="M791.9,60.1l-12.3,26.1c-2.7,5.7-2.8,12.5,0.2,18.1c2.1,3.9,5.8,7.3,12.1,7.3s10-3.4,12.1-7.3
		c3-5.6,2.9-12.4,0.2-18.1L791.9,60.1z"/>
	<path class="st1" d="M723.4,156.4l-7.1,15.1c-1.6,3.3-1.6,7.2,0.1,10.5c1.2,2.3,3.4,4.2,7,4.2c3.6,0,5.8-2,7-4.2
		c1.8-3.2,1.7-7.1,0.1-10.5L723.4,156.4z"/>
	<path class="st1" d="M791.9,144.3L779,171.7c-2.8,6-3,13.1,0.2,18.9c2.2,4.1,6.1,7.7,12.7,7.7c6.6,0,10.4-3.5,12.7-7.7
		c3.2-5.8,3-12.9,0.2-18.9L791.9,144.3z"/>
</g>
<path class="st2" d="M1050.6,378.4c0-31.4-25.4-56.8-56.8-56.8c-12.6,0-24.9,4.2-34.9,12c-22.2-25.7-61-28.5-86.7-6.3
	c-8.6,7.4-14.9,17.1-18.4,27.9c-18.9-16.8-47.9-15.1-64.7,3.8c-16.8,18.9-15.1,47.9,3.8,64.7c8.4,7.5,19.2,11.6,30.5,11.6
	c0.7,0,1.4,0,2.1-0.1c0.7,0,1.5,0.1,2.2,0.1h172.1c25.7,0,47.1-19.5,49.6-45C1050.2,386.4,1050.6,382.4,1050.6,378.4z"/>
<path class="st1" d="M987.4,482.7L970.8,518c-3.7,7.8-3.8,16.9,0.3,24.5c2.9,5.3,7.8,9.9,16.3,9.9s13.5-4.6,16.3-9.9
	c4.1-7.5,3.9-16.7,0.3-24.5L987.4,482.7z"/>
<polygon class="st3" points="987.4,449 922.5,449 955.4,390.4 922.5,390.4 875.9,474.4 926.1,474.4 906,550.4 "/>
<circle class="st4" cx="182" cy="178.6" r="131.8"/>
<circle class="st4" cx="-550.7" cy="-56.9" r="61.9"/>
<path class="st0" d="M-381.2-8.1c0-26.7-21.7-48.3-48.3-48.3c-10.8,0-21.2,3.6-29.7,10.2c-18.9-21.9-51.9-24.3-73.8-5.4
	c-7.3,6.3-12.7,14.5-15.6,23.7c-16.1-14.3-40.8-12.9-55.1,3.2s-12.9,40.8,3.2,55.1c7.1,6.3,16.4,9.8,25.9,9.8c0.6,0,1.2,0,1.8,0
	c0.6,0,1.2,0,1.9,0h146.5c21.8,0,40.1-16.6,42.2-38.3C-381.6-1.4-381.2-4.7-381.2-8.1z"/>
</svg>
